<?xml version="1.0" encoding="UTF-8"?>
<svg width="52px" height="40px" viewBox="0 0 52 40" version="1.1" xmlns="http://www.w3.org/2000/svg" xmlns:xlink="http://www.w3.org/1999/xlink">
    <!-- Generator: sketchtool 41.2 (35397) - http://www.bohemiancoding.com/sketch -->
    <title>45DD375F-D1F3-4E61-943C-B5B8B7B2A68C</title>
    <desc>Created with sketchtool.</desc>
    <defs></defs>
    <g id="responsive-header" stroke="none" stroke-width="1" fill="none" fill-rule="evenodd">
        <g id="1.3_mobile-header" transform="translate(-134.000000, -10.000000)">
            <g id="rangde_logo" transform="translate(134.000000, 10.000000)">
                <path d="M50.3653766,28.5033149 C50.342303,28.4106077 50.2800606,28.320221 50.1798874,28.2334807 C50.0088052,28.0913812 49.7726667,28.0198895 49.4695584,28.0198895 C48.9455065,28.0198895 48.544026,28.2927072 48.2651169,28.8375691 L50.4049957,28.8375691 C50.4027446,28.7078453 50.3895758,28.5959116 50.3653766,28.5033149 L50.3653766,28.5033149 Z M48.1081039,30.7618785 C48.258026,30.9530387 48.5020433,31.0555801 48.8394805,31.0685083 C49.1039827,31.0749171 49.3145714,31.0418785 49.4728225,30.9700552 C49.6302857,30.8994475 49.7661385,30.820221 49.8800433,30.7338122 C49.9936104,30.6469613 50.102,30.5665193 50.2038615,30.4917127 C50.3056104,30.4174586 50.437974,30.380442 50.6019654,30.380442 C50.7791255,30.380442 50.9195931,30.4358011 51.0241558,30.5475138 C51.1288312,30.6585635 51.1650736,30.801989 51.1334459,30.9754696 C51.1062078,31.1244199 51.0059221,31.2772376 50.832026,31.4348066 C50.6580173,31.5930387 50.4460779,31.7370166 50.1967706,31.8678453 C49.9465628,31.9976796 49.674632,32.1028729 49.3780519,32.1836464 C49.0830476,32.2638674 48.7995238,32.3040884 48.5275931,32.3040884 C48.0619567,32.2979006 47.650684,32.239337 47.2938874,32.1276243 C46.9366407,32.0165746 46.6444502,31.8470718 46.4169784,31.621326 C46.1892814,31.3953591 46.036658,31.1103867 45.9584329,30.7662983 C45.8797576,30.4220994 45.8862857,30.018011 45.9762165,29.5535912 C46.0577056,29.1324862 46.2151688,28.7552486 46.4492814,28.4241989 C46.6845195,28.0927072 46.9672554,27.8104972 47.3000779,27.5785635 C47.6322251,27.3455249 47.9984762,27.1693923 48.3970303,27.0478453 C48.7965974,26.9274033 49.2008918,26.8674033 49.6120519,26.8674033 C50.0468485,26.8674033 50.4320087,26.9333702 50.7650563,27.0670718 C51.098329,27.2005525 51.3649697,27.3922652 51.5652035,27.6438674 C51.7650996,27.8938122 51.8862078,28.2057459 51.930329,28.5776796 C51.9743377,28.9490608 51.9248139,29.3701657 51.7824329,29.841768 L51.7432641,29.8875138 L47.9663983,29.8875138 C47.9111342,30.278011 47.9581818,30.5695028 48.1081039,30.7618785 L48.1081039,30.7618785 Z M43.1379394,28.3545856 C43.2124502,28.0198895 43.2373247,27.6944751 43.2124502,27.378011 C43.174632,26.8952486 43.0049004,26.5144751 42.7044935,26.2355801 C42.4032987,25.9567956 41.9969784,25.8174586 41.4860952,25.8174586 L40.7943377,25.8174586 L39.5964242,31.2165746 L40.3632554,31.2165746 C41.1016104,31.2165746 41.7284242,30.9071823 42.2453853,30.2877348 C42.6609351,29.779337 42.955039,29.1351381 43.1284848,28.3545856 L43.1379394,28.3545856 Z M43.7659913,31.198232 C42.9785628,31.8176796 42.0319827,32.1276243 40.9277143,32.1276243 L37.3301472,32.1276243 L38.7764675,25.5665193 C38.8170996,25.3870718 38.9194113,25.2304972 39.0846407,25.0970166 C39.2495325,24.9637569 39.4241039,24.8965746 39.6074545,24.8965746 L42.1828052,24.8965746 C43.3311948,24.8965746 44.2043896,25.240884 44.8034026,25.9282873 C45.4014026,26.6160221 45.5751861,27.5241989 45.3255411,28.6521547 C45.0861385,29.7298343 44.5662511,30.578674 43.7659913,31.198232 L43.7659913,31.198232 Z M25.1439134,27.8709392 L24.4807446,27.8709392 C24.1212468,27.8709392 23.8125108,27.9674033 23.5552121,28.1596685 C23.4874545,28.2086188 23.4204848,28.2927072 23.3530649,28.4106077 C23.2857576,28.5279558 23.2244156,28.6549171 23.1688139,28.7910497 C23.1136623,28.9278453 23.0656017,29.0640884 23.0265455,29.2001105 C22.9864762,29.3363536 22.9567619,29.4476243 22.9379654,29.5348066 C22.9162424,29.6027624 22.8969957,29.7034254 22.8804502,29.8366851 C22.8634545,29.9700552 22.8511861,30.1079558 22.8451082,30.2500552 C22.8384675,30.3933702 22.8408312,30.5244199 22.8521991,30.6458564 C22.8634545,30.7662983 22.8865281,30.8451934 22.9224329,30.8822099 C22.9733074,30.938453 23.0278961,30.9839779 23.0868745,31.0175691 C23.1457403,31.0511602 23.2267792,31.0760221 23.3310043,31.0916022 C23.4345541,31.1070718 23.5727706,31.1162431 23.7461039,31.119779 C23.9185368,31.1225414 24.1438701,31.1244199 24.4214286,31.1244199 L25.1439134,27.8709392 Z M26.2494199,32.2295028 C26.0316277,33.2152486 25.6622251,33.9114917 25.1418874,34.3214365 C24.6216623,34.7302762 23.8630476,34.9344751 22.8658182,34.9344751 L20.366329,34.9344751 L20.5854719,33.9495028 L22.734355,33.9495028 C22.8917056,33.9495028 23.0392641,33.9462983 23.1769177,33.940442 C23.3135584,33.9333702 23.4360173,33.899779 23.5449697,33.8377901 C23.6532468,33.7758011 23.7480173,33.6735912 23.8305195,33.5308287 C23.9129091,33.3886188 23.9798788,33.1835359 24.0331169,32.9177901 C24.0430216,32.8437569 24.0647446,32.7456354 24.0981732,32.6251934 C24.1311515,32.5044199 24.1702078,32.341105 24.2159048,32.1366851 L22.4757056,32.1276243 C22.0279654,32.1276243 21.673645,32.0577901 21.4148831,31.918232 C21.1552208,31.7787845 20.9666926,31.5904972 20.8494113,31.3514917 C20.7320173,31.1130387 20.6745022,30.8377901 20.6778788,30.5244199 C20.6811429,30.2113812 20.7197489,29.8875138 20.7941472,29.5535912 C20.88329,29.1510497 21.0067619,28.7941436 21.1636623,28.4846409 C21.3211255,28.1745856 21.5228225,27.9128177 21.7687532,27.699337 C22.0152468,27.4853039 22.3116017,27.3226519 22.6584935,27.2108287 C23.0048225,27.1 23.4082165,27.0439779 23.8695758,27.0439779 L26.7192208,27.0439779 C26.9021212,27.0439779 27.0467532,27.1108287 27.1527792,27.2436464 C27.2588052,27.3769061 27.2922338,27.5334807 27.2526147,27.7130387 L26.2494199,32.2295028 Z M16.4780346,27.201989 C16.5995931,27.1095028 16.7259913,27.0342541 16.8588052,26.9792265 C16.9912814,26.9232044 17.1161039,26.8779006 17.2343983,26.8440884 C17.3526926,26.8097238 17.4587186,26.7867403 17.553039,26.7744751 C17.6472468,26.7622099 17.7193939,26.7558011 17.7702684,26.7558011 C18.2090043,26.7682873 18.5788571,26.820663 18.8809524,26.9137017 C19.1821472,27.0069613 19.4224502,27.1370166 19.6033247,27.3044199 C19.7838615,27.4717127 19.9105974,27.6754696 19.9831948,27.9174586 C20.0557922,28.1596685 20.0868571,28.4314917 20.0760519,28.7354696 C20.0756017,28.7668508 20.0736883,28.7941436 20.0717749,28.818674 C20.0695238,28.8436464 20.0637835,28.8840884 20.0548918,28.9401105 C20.044987,28.9958011 20.030355,29.0761326 20.0100952,29.1816575 C19.9898355,29.2868508 19.9587706,29.4353591 19.9163377,29.6276243 C19.8734545,29.819337 19.8192035,30.0647514 19.7532468,30.3622099 C19.6868398,30.6585635 19.6052381,31.0282873 19.5077662,31.4677348 C19.4799654,31.5917127 19.4252641,31.6971271 19.3432121,31.7840884 C19.2603723,31.8704972 19.1647013,31.940221 19.0552987,31.9930387 C18.9449957,32.0459669 18.8263636,32.0846409 18.6977143,32.1089503 C18.5690649,32.1338122 18.4478442,32.1461878 18.3338268,32.1461878 C18.22071,32.1461878 18.1052294,32.1338122 17.9874978,32.1089503 C17.8702165,32.0846409 17.768355,32.0459669 17.6821385,31.9930387 C17.5958095,31.940221 17.5299654,31.8704972 17.482355,31.7840884 C17.4351948,31.6971271 17.4257403,31.5917127 17.4535411,31.4677348 L17.86729,29.6003315 C17.9431515,29.259337 17.9926753,28.9741436 18.0148485,28.7446409 C18.0374719,28.5155801 18.0294805,28.3312707 17.9912121,28.1920442 C17.9521558,28.0524862 17.878658,27.9502762 17.7702684,27.8845304 C17.6614286,27.82 17.5134199,27.7846409 17.3259048,27.778011 C17.3121732,27.778011 17.2664762,27.779779 17.1873506,27.7827624 C17.1072121,27.7860773 17.0139048,27.801105 16.9068658,27.8295028 C16.7999394,27.8570166 16.6868225,27.901989 16.5689784,27.9638674 C16.4512468,28.0259669 16.3447706,28.1161326 16.2490996,28.2334807 L15.3871602,32.118453 L13.330684,32.1276243 L14.5082251,26.820663 L16.5629004,26.820663 L16.4780346,27.201989 Z M10.5629784,28.7259669 C10.3966234,28.7634254 10.258632,28.8022099 10.1492294,28.8424309 C10.0389264,28.8823204 9.94944589,28.9293923 9.88112554,28.9812155 C9.81280519,29.0344751 9.74819913,29.0981215 9.6869697,29.1723757 C9.60446753,29.2900552 9.52151515,29.4216575 9.43901299,29.5674033 C9.35572294,29.7127072 9.28638961,29.9123757 9.23033766,30.1668508 C9.1944329,30.3280663 9.19071861,30.4779006 9.21998268,30.6173481 C9.24868398,30.7566851 9.30338528,30.880442 9.38296104,30.9890608 C9.464,31.0977901 9.56766234,31.1827624 9.69597403,31.2447514 C9.82406061,31.3061878 9.97015584,31.3374586 10.1350476,31.3374586 C10.2011169,31.3497238 10.278329,31.3374586 10.3645455,31.3 C10.4522251,31.2634254 10.5483463,31.179558 10.6534719,31.0495028 L11.1958701,28.6051934 C10.9400346,28.6486188 10.7284329,28.6887293 10.5629784,28.7259669 L10.5629784,28.7259669 Z M9.98388745,32.0577901 C9.8485974,32.098674 9.69597403,32.118453 9.52579221,32.118453 C9.20388745,32.118453 8.89999134,32.079558 8.61444156,32.0023204 C8.32877922,31.9245304 8.08611255,31.8066298 7.88824242,31.6492818 C7.68890909,31.4908287 7.54607792,31.2902762 7.45896104,31.0450829 C7.37071861,30.7998895 7.36509091,30.5075138 7.44095238,30.1668508 C7.48721212,29.9560221 7.56915152,29.7668508 7.68463203,29.6003315 C7.80056277,29.4322652 7.9410303,29.2851934 8.10445887,29.158011 C8.26845022,29.0311602 8.45461472,28.9201105 8.66205195,28.8236464 C8.86982684,28.7277348 9.08885714,28.639779 9.3217316,28.558895 C9.50924675,28.5096133 9.67987879,28.4672928 9.83250216,28.4330387 C9.9852381,28.399337 10.1294199,28.3682873 10.2651602,28.340442 C10.3998874,28.3124862 10.53,28.2896133 10.6543723,28.2710497 C10.7784069,28.2525967 10.9064935,28.2306077 11.0379567,28.2057459 C10.9131342,27.9454144 10.6543723,27.8149171 10.2627965,27.8149171 L8.49277056,27.8149171 C8.21757576,27.8026519 8.11582684,27.6351381 8.18741126,27.3133702 C8.21667532,27.1829834 8.27936797,27.0702762 8.37638961,26.9743646 C8.47352381,26.8779006 8.58517749,26.8295028 8.7114632,26.8295028 L10.8320952,26.8295028 C12.7128745,26.8295028 13.4738528,27.638453 13.1148052,29.2556906 L12.4857403,32.0911602 C12.4842771,32.0967956 12.4644675,32.1028729 12.4248485,32.1089503 C12.3857922,32.1155801 12.2963117,32.120221 12.1567446,32.1230939 C12.0168398,32.1262983 11.8089524,32.1276243 11.5309437,32.1276243 L10.4037143,32.1276243 L10.4433333,31.8678453 C10.2718009,31.9545856 10.1195152,32.018011 9.98388745,32.0577901 L9.98388745,32.0577901 Z M4.01446753,32.1276243 L3.0037316,28.4476243 L3.23131602,28.4476243 C3.79915152,28.4476243 4.23698701,28.3667403 4.54425974,28.2057459 C4.92412987,28.000884 5.17332468,27.6324862 5.29161905,27.1 C5.33450216,26.9075138 5.34012987,26.7296133 5.31052814,26.5658564 C5.28081385,26.4009945 5.22048485,26.260442 5.12999134,26.1420994 C5.03904762,26.0247514 4.91692641,25.9329282 4.76475325,25.8681768 C4.61167965,25.8038674 4.43778355,25.7708287 4.24160173,25.7708287 L3.47544589,25.7708287 L2.0635671,32.1276243 L0,32.1276243 L1.44677056,25.5665193 C1.48864069,25.3801105 1.59275325,25.2222099 1.76102165,25.0919337 C1.92782684,24.9616575 2.10645022,24.8965746 2.296329,24.8965746 L5.3067013,24.8965746 C5.96311688,24.8965746 6.50979221,25.0919337 6.94717749,25.4825414 C7.41506494,25.9043094 7.57995671,26.4307182 7.43915152,27.0627624 C7.3278355,27.5644199 7.06490909,27.9958011 6.65070996,28.3545856 C6.26194805,28.6826519 5.79822511,28.9120442 5.25819048,29.0423204 L6.35289177,32.1276243 L4.01446753,32.1276243 Z" id="Fill-1" fill="#000000"></path>
                <path d="M41.9264632,18.4195801 C41.9264632,18.4195801 35.8283939,22.0137238 33.0768961,27.2172597 C30.137658,32.7739448 30.5326104,39.962895 30.5326104,39.962895 C30.5326104,39.962895 32.4944286,32.1526188 34.6074069,27.9699669 C36.7194848,23.7867624 41.9264632,18.4195801 41.9264632,18.4195801" id="Fill-4" fill="#EC5332"></path>
                <path d="M23.7790823,19.715116 C23.7790823,19.715116 25.1075584,19.9226298 26.7757229,21.0999779 C28.7493593,22.4943425 31.1154719,24.9216354 31.7465628,28.9358895 C31.7093074,35.154453 26.2315238,39.2226298 26.2315238,39.2226298 C26.2315238,39.2226298 30.0420433,35.0396464 29.9289264,29.4501436 C29.8158095,23.8608619 23.7790823,19.715116 23.7790823,19.715116" id="Fill-7" fill="#EC5332"></path>
                <path d="M32.8195186,22.970895 C33.535813,23.1069171 33.9641939,23.9892376 33.776116,24.9415028 C33.5886009,25.8936575 32.855761,26.5547624 32.1399169,26.4191823 C31.4237351,26.2827182 30.9952416,25.4006188 31.1838823,24.4485746 C31.3713974,23.4967514 32.1042372,22.8349834 32.8195186,22.970895" id="Fill-9" fill="#EC5332"></path>
                <path d="M41.8882061,20.4551381 C41.8882061,20.4551381 44.6246216,19.7609945 46.5451325,20.4414365 C48.4922061,21.1308287 49.6232623,23.1948066 49.6232623,23.1948066 C49.6232623,23.1948066 47.1570892,23.7937017 45.2599896,23.121326 C43.2911931,22.4243094 41.8882061,20.4551381 41.8882061,20.4551381" id="Fill-11" fill="#B7D03D"></path>
                <path d="M39.2816554,16.2502099 C39.2816554,16.2502099 42.6435342,14.7540773 45.2689714,15.2053481 C47.931439,15.6633591 49.8580277,18.069105 49.8580277,18.069105 C49.8580277,18.069105 46.8225558,19.3830276 44.2282961,18.9369503 C41.5362268,18.4738564 39.2816554,16.2502099 39.2816554,16.2502099" id="Fill-13" fill="#00A9DD"></path>
                <path d="M34.6606225,14.8329503 C34.6606225,14.8329503 36.7676355,11.7707403 39.2939126,10.7867624 C41.8569948,9.78886188 44.840129,10.8698564 44.840129,10.8698564 C44.840129,10.8698564 42.9174797,13.603558 40.4208043,14.5752707 C37.8299212,15.583779 34.6606225,14.8329503 34.6606225,14.8329503" id="Fill-15" fill="#B7D03D"></path>
                <path d="M42.0913325,4.98812155 C42.0913325,4.98812155 40.6586312,8.4058011 38.3878519,9.87088398 C36.0833065,11.3567403 32.9392199,10.890884 32.9392199,10.890884 C32.9392199,10.890884 34.2592545,7.83232044 36.5040338,6.38480663 C38.834129,4.8819337 42.0913325,4.98812155 42.0913325,4.98812155" id="Fill-17" fill="#E32642"></path>
                <path d="M29.9684667,0.110486188 C29.9684667,0.110486188 32.5772459,2.90893923 32.9019645,5.56009945 C33.2303974,8.24938122 31.2737567,10.7930276 31.2737567,10.7930276 C31.2737567,10.7930276 28.957168,8.25468508 28.6371766,5.63512707 C28.3044667,2.91645304 29.9684667,0.110486188 29.9684667,0.110486188" id="Fill-19" fill="#00A9DD"></path>
                <path d="M21.1985316,5.93511602 C21.1985316,5.93511602 24.6010424,5.97091713 26.5325835,7.36141436 C28.4915879,8.77102762 28.9811983,11.535116 28.9811983,11.535116 C28.9811983,11.535116 25.925129,11.4715801 24.0166615,10.0984309 C22.035484,8.67268508 21.1985316,5.93511602 21.1985316,5.93511602" id="Fill-22" fill="#B7D03D"></path>
                <path d="M14.274529,12.5505967 C14.274529,12.5505967 17.6000528,10.5248508 20.3494121,10.7039669 C23.1372649,10.8858453 25.3497411,13.2736906 25.3497411,13.2736906 C25.3497411,13.2736906 22.3436459,15.0626409 19.6269273,14.8852928 C16.807897,14.7013149 14.274529,12.5505967 14.274529,12.5505967" id="Fill-24" fill="#E32642"></path>
                <path d="M15.4262277,21.4884641 C15.4262277,21.4884641 17.0238208,17.9805083 19.4031022,16.6164199 C21.8163749,15.233768 25.0118987,15.9938785 25.0118987,15.9938785 C25.0118987,15.9938785 23.5425048,19.1296796 21.1919247,20.4776354 C18.7514139,21.8752044 15.4262277,21.4884641 15.4262277,21.4884641" id="Fill-26" fill="#B7D03D"></path>
                <path d="M26.0052675,15.2361989 C26.0052675,15.2361989 25.590168,17.0621657 26.2832762,18.3577459 C27.0042978,19.7075801 28.8346528,20.5295691 28.8346528,20.5295691 C28.8346528,20.5295691 29.5589385,18.2437127 28.8327394,16.8854807 C28.1457091,15.5995138 26.0052675,15.2361989 26.0052675,15.2361989" id="Fill-28" fill="#00A9DD"></path>
                <path d="M30.0419983,16.9020773 C30.0419983,16.9020773 29.6772104,15.3650608 30.4321108,14.0803094 C31.2413749,12.7027403 33.173929,11.5719116 33.173929,11.5719116 C33.173929,11.5719116 33.9947861,13.9426298 33.1541195,15.3733481 C32.4387255,16.5900331 30.0419983,16.9020773 30.0419983,16.9020773" id="Fill-30" fill="#B7D03D"></path>
                <path d="M33.5886009,20.5296022 C33.5886009,20.5296022 33.7309818,18.8932486 34.9028952,18.0049613 C36.2798823,16.9619779 38.7196052,16.6429724 38.7196052,16.6429724 C38.7196052,16.6429724 38.2138996,19.0446298 36.8722545,20.0607624 C35.6545316,20.9831934 33.5886009,20.5296022 33.5886009,20.5296022" id="Fill-32" fill="#E32642"></path>
            </g>
        </g>
    </g>
</svg>